# xmcd
#
# Track frame offsets: 
#        155
#        20080
#        34600
#        53150
#        74235
#        95725
#        110620
#        132265
#        147578
#        162830
#        180470
#        200193
#
# Disc length: 2873 seconds
#
# Revision: 1
# Processed by: cddbd v1.5.2PL0 Copyright (c) Steve Scherf et al.
# Submitted via: ExactAudioCopy v0.95b3
#
DISCID=bb0b370c
DTITLE=Сергей Минаев - Коллекция
DYEAR=1993
DGENRE=Disco
TTITLE0=Карнавал
TTITLE1=Шери-Бренди
TTITLE2=Братец Луи
TTITLE3=Реп Диск-Жокея
TTITLE4=Вояж
TTITLE5=Начинается Свастика
TTITLE6=Мини-Макси
TTITLE7=22 Притопа
TTITLE8=Свеча На Ветру
TTITLE9=Лучшая Песня
TTITLE10=Вы Готовы?
TTITLE11=Родная Речь
EXTD=Сборник лучших старых песен Минаева\n
EXTT0=
EXTT1=
EXTT2=
EXTT3=
EXTT4=
EXTT5=
EXTT6=
EXTT7=
EXTT8=
EXTT9=
EXTT10=
EXTT11=Coded by RANC.ru\n
PLAYORDER=
